<mxfile host="65bd71144e">
    <diagram id="LCZt-5wUCEiSNrgn4ZDX" name="Page-1">
        <mxGraphModel dx="1939" dy="536" grid="1" gridSize="10" guides="1" tooltips="1" connect="1" arrows="1" fold="1" page="1" pageScale="1" pageWidth="850" pageHeight="1100" background="#000000" math="0" shadow="0">
            <root>
                <mxCell id="0"/>
                <mxCell id="1" parent="0"/>
                <mxCell id="d5iK1fDU2R5yeQ7mabcC-2" style="edgeStyle=none;html=1;" parent="1" source="d5iK1fDU2R5yeQ7mabcC-1" edge="1">
                    <mxGeometry relative="1" as="geometry">
                        <mxPoint x="210" y="250" as="targetPoint"/>
                    </mxGeometry>
                </mxCell>
                <mxCell id="d5iK1fDU2R5yeQ7mabcC-1" value="&lt;font style=&quot;color: rgb(255, 255, 255);&quot;&gt;messages&lt;/font&gt;" style="rounded=0;whiteSpace=wrap;html=1;fillColor=#000000;strokeColor=#d6b656;fontFamily=Helvetica;textShadow=1;align=center;horizontal=1;fontSize=16;fontStyle=1" parent="1" vertex="1">
                    <mxGeometry x="285" y="40" width="280" height="200" as="geometry"/>
                </mxCell>
                <mxCell id="d5iK1fDU2R5yeQ7mabcC-5" value="" style="endArrow=classic;startArrow=classic;html=1;fontSize=15;labelBackgroundColor=default;fontColor=#FFFFFF;fillColor=#FFFFFF;labelBorderColor=#FFFFFF;strokeColor=#FFFFFF;entryX=0;entryY=1;entryDx=0;entryDy=0;exitX=0.5;exitY=0;exitDx=0;exitDy=0;" parent="1" source="d5iK1fDU2R5yeQ7mabcC-6" target="d5iK1fDU2R5yeQ7mabcC-1" edge="1">
                    <mxGeometry width="50" height="50" relative="1" as="geometry">
                        <mxPoint x="240" y="340" as="sourcePoint"/>
                        <mxPoint x="290" y="220" as="targetPoint"/>
                    </mxGeometry>
                </mxCell>
                <mxCell id="d5iK1fDU2R5yeQ7mabcC-6" value="S&lt;span style=&quot;background-color: light-dark(rgb(255, 255, 255), rgb(18, 18, 18));&quot;&gt;ender Id&lt;/span&gt;" style="ellipse;whiteSpace=wrap;html=1;aspect=fixed;strokeColor=#000000;labelBorderColor=none;labelBackgroundColor=#ffffff;textShadow=0;fontSize=13;fontStyle=1" parent="1" vertex="1">
                    <mxGeometry x="227" y="330" width="80" height="80" as="geometry"/>
                </mxCell>
                <mxCell id="d5iK1fDU2R5yeQ7mabcC-7" value="Receiver Id" style="ellipse;whiteSpace=wrap;html=1;aspect=fixed;strokeColor=#000000;labelBorderColor=none;labelBackgroundColor=#ffffff;textShadow=0;fontSize=13;fontStyle=1" parent="1" vertex="1">
                    <mxGeometry x="315" y="330" width="80" height="80" as="geometry"/>
                </mxCell>
                <mxCell id="d5iK1fDU2R5yeQ7mabcC-8" value="" style="endArrow=classic;startArrow=classic;html=1;fontSize=15;labelBackgroundColor=default;fontColor=#FFFFFF;fillColor=#FFFFFF;labelBorderColor=#FFFFFF;strokeColor=#FFFFFF;entryX=0.25;entryY=1;entryDx=0;entryDy=0;exitX=0.5;exitY=0;exitDx=0;exitDy=0;" parent="1" source="d5iK1fDU2R5yeQ7mabcC-7" target="d5iK1fDU2R5yeQ7mabcC-1" edge="1">
                    <mxGeometry width="50" height="50" relative="1" as="geometry">
                        <mxPoint x="361" y="350" as="sourcePoint"/>
                        <mxPoint x="340" y="200" as="targetPoint"/>
                    </mxGeometry>
                </mxCell>
                <mxCell id="d5iK1fDU2R5yeQ7mabcC-9" value="Message Text" style="ellipse;whiteSpace=wrap;html=1;aspect=fixed;strokeColor=#000000;labelBorderColor=none;labelBackgroundColor=#ffffff;textShadow=0;fontSize=11;fontStyle=0;align=center;" parent="1" vertex="1">
                    <mxGeometry x="417" y="330" width="80" height="80" as="geometry"/>
                </mxCell>
                <mxCell id="d5iK1fDU2R5yeQ7mabcC-10" value="" style="endArrow=classic;startArrow=classic;html=1;fontSize=15;labelBackgroundColor=default;fontColor=#FFFFFF;fillColor=#FFFFFF;labelBorderColor=#FFFFFF;strokeColor=#FFFFFF;exitX=0.5;exitY=0;exitDx=0;exitDy=0;entryX=0.614;entryY=1.005;entryDx=0;entryDy=0;entryPerimeter=0;" parent="1" source="d5iK1fDU2R5yeQ7mabcC-9" target="d5iK1fDU2R5yeQ7mabcC-1" edge="1">
                    <mxGeometry width="50" height="50" relative="1" as="geometry">
                        <mxPoint x="462.5" y="330" as="sourcePoint"/>
                        <mxPoint x="450" y="250" as="targetPoint"/>
                    </mxGeometry>
                </mxCell>
                <mxCell id="d5iK1fDU2R5yeQ7mabcC-11" value="Sending At" style="ellipse;whiteSpace=wrap;html=1;aspect=fixed;strokeColor=#000000;labelBorderColor=none;labelBackgroundColor=#ffffff;textShadow=0;fontSize=12;fontStyle=1;align=center;" parent="1" vertex="1">
                    <mxGeometry x="525" y="330" width="80" height="80" as="geometry"/>
                </mxCell>
                <mxCell id="d5iK1fDU2R5yeQ7mabcC-12" value="" style="endArrow=classic;startArrow=classic;html=1;fontSize=15;labelBackgroundColor=default;fontColor=#FFFFFF;fillColor=#FFFFFF;labelBorderColor=#FFFFFF;strokeColor=#FFFFFF;exitX=0.5;exitY=0;exitDx=0;exitDy=0;entryX=1;entryY=1;entryDx=0;entryDy=0;" parent="1" source="d5iK1fDU2R5yeQ7mabcC-11" target="d5iK1fDU2R5yeQ7mabcC-1" edge="1">
                    <mxGeometry width="50" height="50" relative="1" as="geometry">
                        <mxPoint x="558" y="330" as="sourcePoint"/>
                        <mxPoint x="550" y="241" as="targetPoint"/>
                    </mxGeometry>
                </mxCell>
                <mxCell id="3" value="&lt;font style=&quot;color: rgb(255, 255, 255);&quot;&gt;ContactsConnetions&lt;/font&gt;" style="rounded=0;whiteSpace=wrap;html=1;fillColor=#000000;strokeColor=#d6b656;fontFamily=Helvetica;textShadow=1;align=center;horizontal=1;fontSize=16;fontStyle=1" parent="1" vertex="1">
                    <mxGeometry x="-60" y="40" width="280" height="200" as="geometry"/>
                </mxCell>
                <mxCell id="4" value="User Id" style="ellipse;whiteSpace=wrap;html=1;aspect=fixed;strokeColor=#000000;labelBorderColor=none;labelBackgroundColor=#ffffff;textShadow=0;fontSize=13;fontStyle=1" parent="1" vertex="1">
                    <mxGeometry x="-31" y="290" width="80" height="80" as="geometry"/>
                </mxCell>
                <mxCell id="5" value="Contact Id" style="ellipse;whiteSpace=wrap;html=1;aspect=fixed;strokeColor=#000000;labelBorderColor=none;labelBackgroundColor=#ffffff;textShadow=0;fontSize=13;fontStyle=1" parent="1" vertex="1">
                    <mxGeometry x="109" y="290" width="80" height="80" as="geometry"/>
                </mxCell>
                <mxCell id="8" value="" style="endArrow=classic;startArrow=classic;html=1;fontSize=15;labelBackgroundColor=default;fontColor=#FFFFFF;fillColor=#FFFFFF;labelBorderColor=#FFFFFF;strokeColor=#FFFFFF;exitX=0.5;exitY=0;exitDx=0;exitDy=0;entryX=0.75;entryY=1;entryDx=0;entryDy=0;" parent="1" source="5" target="3" edge="1">
                    <mxGeometry width="50" height="50" relative="1" as="geometry">
                        <mxPoint x="137.5" y="290" as="sourcePoint"/>
                        <mxPoint x="138" y="250" as="targetPoint"/>
                    </mxGeometry>
                </mxCell>
                <mxCell id="9" value="" style="endArrow=classic;startArrow=classic;html=1;fontSize=15;labelBackgroundColor=default;fontColor=#FFFFFF;fillColor=#FFFFFF;labelBorderColor=#FFFFFF;strokeColor=#FFFFFF;entryX=0.25;entryY=1;entryDx=0;entryDy=0;exitX=0.5;exitY=0;exitDx=0;exitDy=0;" parent="1" source="4" target="3" edge="1">
                    <mxGeometry width="50" height="50" relative="1" as="geometry">
                        <mxPoint x="10" y="290" as="sourcePoint"/>
                        <mxPoint x="15" y="200" as="targetPoint"/>
                    </mxGeometry>
                </mxCell>
                <mxCell id="11" value="&lt;font style=&quot;color: rgb(255, 255, 255);&quot;&gt;User&lt;/font&gt;" style="rounded=0;whiteSpace=wrap;html=1;fillColor=#000000;" vertex="1" parent="1">
                    <mxGeometry x="-620" y="220" width="120" height="60" as="geometry"/>
                </mxCell>
                <mxCell id="12" value="&lt;font style=&quot;color: rgb(255, 255, 255);&quot;&gt;worker&lt;/font&gt;" style="rounded=0;whiteSpace=wrap;html=1;fillColor=#000000;" vertex="1" parent="1">
                    <mxGeometry x="-480" y="220" width="120" height="60" as="geometry"/>
                </mxCell>
                <mxCell id="14" value="SignUpId" style="ellipse;whiteSpace=wrap;html=1;" vertex="1" parent="1">
                    <mxGeometry x="-620" y="305" width="60" height="45" as="geometry"/>
                </mxCell>
                <mxCell id="15" value="SignUpId" style="ellipse;whiteSpace=wrap;html=1;" vertex="1" parent="1">
                    <mxGeometry x="-480" y="305" width="60" height="45" as="geometry"/>
                </mxCell>
                <mxCell id="16" value="WorkerId" style="ellipse;whiteSpace=wrap;html=1;" vertex="1" parent="1">
                    <mxGeometry x="-370" y="305" width="60" height="45" as="geometry"/>
                </mxCell>
                <mxCell id="17" value="" style="endArrow=classic;html=1;strokeColor=#FFFFFF;entryX=0.25;entryY=1;entryDx=0;entryDy=0;exitX=0.5;exitY=0;exitDx=0;exitDy=0;" edge="1" parent="1" source="14" target="11">
                    <mxGeometry width="50" height="50" relative="1" as="geometry">
                        <mxPoint x="-740" y="290" as="sourcePoint"/>
                        <mxPoint x="-740" y="230" as="targetPoint"/>
                    </mxGeometry>
                </mxCell>
                <mxCell id="18" value="" style="endArrow=classic;html=1;strokeColor=#FFFFFF;entryX=1;entryY=1;entryDx=0;entryDy=0;exitX=0.5;exitY=0;exitDx=0;exitDy=0;" edge="1" parent="1" source="16" target="12">
                    <mxGeometry width="50" height="50" relative="1" as="geometry">
                        <mxPoint x="-580" y="315" as="sourcePoint"/>
                        <mxPoint x="-580" y="290" as="targetPoint"/>
                    </mxGeometry>
                </mxCell>
                <mxCell id="19" value="" style="endArrow=classic;html=1;strokeColor=#FFFFFF;entryX=0.25;entryY=1;entryDx=0;entryDy=0;exitX=0.5;exitY=0;exitDx=0;exitDy=0;" edge="1" parent="1" source="15" target="12">
                    <mxGeometry width="50" height="50" relative="1" as="geometry">
                        <mxPoint x="-570" y="325" as="sourcePoint"/>
                        <mxPoint x="-570" y="300" as="targetPoint"/>
                    </mxGeometry>
                </mxCell>
                <mxCell id="22" value="When User Click On Contact then thier will be added UserSignupId &amp;amp; workerId Contact to db" style="rounded=0;whiteSpace=wrap;html=1;" vertex="1" parent="1">
                    <mxGeometry x="-720" y="95" width="130" height="90" as="geometry"/>
                </mxCell>
                <mxCell id="23" value="when worker click on contact if it is not same id with workerId &amp;amp; workerId then it will be contact to db." style="rounded=0;whiteSpace=wrap;html=1;" vertex="1" parent="1">
                    <mxGeometry x="-480" y="95" width="130" height="90" as="geometry"/>
                </mxCell>
                <mxCell id="24" value="when get all connetions we check if&amp;nbsp;" style="rounded=0;whiteSpace=wrap;html=1;" vertex="1" parent="1">
                    <mxGeometry x="-310" y="220" width="130" height="90" as="geometry"/>
                </mxCell>
            </root>
        </mxGraphModel>
    </diagram>
</mxfile>